<svg id="Layer_1" data-name="Layer 1" xmlns="http://www.w3.org/2000/svg" viewBox="0 0 512 512"><defs><style>.cls-1{fill:none;}.cls-2{fill:#146bf6;}.cls-3{fill:#09cad3;}.cls-4{fill:#0792de;}.cls-5{fill:#08e5fa;}</style></defs><title>Logo-Transparent BG</title><rect class="cls-1" width="512" height="512"/><path class="cls-2" d="M333.46,117.12a382.89,382.89,0,0,0-236.34,145Q97,259.09,97,256A159,159,0,0,1,333.46,117.12Z"/><circle class="cls-2" cx="368.3" cy="368.3" r="36.69"/><path class="cls-3" d="M415,256a159.51,159.51,0,0,1-5.67,42.25A81.21,81.21,0,0,0,300.21,324.1a216.17,216.17,0,0,1,112.66-94.19A160.31,160.31,0,0,1,415,256Z"/><path class="cls-4" d="M390.85,171.74A300.44,300.44,0,0,0,171.74,390.85,158.84,158.84,0,0,1,97.12,262.16h0a382.89,382.89,0,0,1,236.34-145h0A159.5,159.5,0,0,1,390.85,171.74Z"/><path class="cls-5" d="M412.87,229.91A216.17,216.17,0,0,0,300.21,324.1a81.24,81.24,0,0,0-2,85.23,159.46,159.46,0,0,1-26.48,4.9Q264,415,256,415a158.13,158.13,0,0,1-84.26-24.15A300.44,300.44,0,0,1,390.85,171.74,157.7,157.7,0,0,1,412.87,229.91Z"/></svg>